<svg width="14" height="16" viewBox="0 0 14 16" fill="none" xmlns="http://www.w3.org/2000/svg">
<path d="M1.5 16C1.08333 16 0.729333 15.8507 0.438 15.552C0.146 15.2533 0 14.9027 0 14.5V3.5C0 3.09733 0.146 2.74667 0.438 2.448C0.729333 2.14933 1.08333 2 1.5 2H3V0H4.5V2H9.5V0H11V2H12.5C12.9167 2 13.2707 2.14933 13.562 2.448C13.854 2.74667 14 3.09733 14 3.5V14.5C14 14.9027 13.854 15.2533 13.562 15.552C13.2707 15.8507 12.9167 16 12.5 16H1.5ZM1.5 14.5H12.5V7H1.5V14.5ZM1.5 5.5H12.5V3.5H1.5V5.5Z" fill="#0C0D0D"/>
</svg>
