<svg width="18" height="18" viewBox="0 0 18 18" fill="none" xmlns="http://www.w3.org/2000/svg">
<path d="M6.71484 17.3398L6.38281 14.6641C6.28516 14.625 6.1875 14.5859 6.10938 14.5469C6.03125 14.5078 5.93359 14.4688 5.85547 14.4102C5.77734 14.3711 5.69922 14.332 5.62109 14.2734C5.54297 14.2344 5.46484 14.1758 5.38672 14.0977L2.92578 15.1523L0.621094 11.1875L2.76953 9.56641C2.76953 9.52734 2.75 9.46875 2.75 9.42969C2.75 9.39062 2.75 9.33203 2.75 9.27344V8.72656C2.75 8.6875 2.75 8.62891 2.75 8.58984C2.75 8.55078 2.76953 8.49219 2.76953 8.43359L0.621094 6.8125L2.92578 2.84766L5.38672 3.90234C5.46484 3.84375 5.54297 3.78516 5.62109 3.72656C5.69922 3.6875 5.79688 3.62891 5.875 3.58984C5.95312 3.55078 6.03125 3.49219 6.10938 3.45312C6.1875 3.41406 6.28516 3.375 6.38281 3.33594L6.71484 0.660156H11.2852L11.6172 3.33594C11.6953 3.375 11.793 3.41406 11.8711 3.45312C11.9492 3.49219 12.0469 3.55078 12.1445 3.58984C12.2227 3.62891 12.3008 3.6875 12.3789 3.72656C12.457 3.78516 12.5352 3.84375 12.6133 3.90234L15.0742 2.84766L17.3789 6.8125L15.2305 8.43359C15.2305 8.49219 15.2305 8.55078 15.2305 8.58984C15.2305 8.62891 15.25 8.6875 15.25 8.72656V9.27344C15.25 9.33203 15.2305 9.39062 15.2305 9.42969C15.2305 9.46875 15.2109 9.52734 15.2109 9.56641L17.3594 11.1875L15.0547 15.1523L12.6133 14.0977C12.5352 14.1758 12.4375 14.2344 12.3594 14.2734C12.2812 14.332 12.2031 14.3711 12.125 14.4102C12.0469 14.4688 11.9492 14.5078 11.8711 14.5469C11.793 14.5859 11.6953 14.625 11.6172 14.6641L11.2852 17.3398H6.71484ZM9.03906 11.9102C9.42969 11.9102 9.80078 11.8516 10.1523 11.6953C10.5039 11.5586 10.8164 11.3438 11.1094 11.0703C11.3828 10.7969 11.5977 10.4844 11.7344 10.1328C11.8711 9.78125 11.9492 9.41016 11.9492 9C11.9492 8.60938 11.8711 8.23828 11.7344 7.88672C11.5977 7.53516 11.3828 7.22266 11.1094 6.92969C10.8164 6.65625 10.5039 6.46094 10.1523 6.30469C9.80078 6.16797 9.42969 6.08984 9.03906 6.08984C8.62891 6.08984 8.25781 6.16797 7.90625 6.30469C7.55469 6.46094 7.24219 6.65625 6.96875 6.92969C6.67578 7.22266 6.46094 7.53516 6.32422 7.88672C6.1875 8.23828 6.12891 8.60938 6.12891 9C6.12891 9.41016 6.1875 9.78125 6.32422 10.1328C6.46094 10.4844 6.67578 10.7969 6.96875 11.0703C7.24219 11.3438 7.55469 11.5586 7.90625 11.6953C8.25781 11.8516 8.62891 11.9102 9.03906 11.9102ZM9.03906 10.25C8.86328 10.25 8.70703 10.2305 8.55078 10.1719C8.39453 10.1133 8.27734 10.0156 8.16016 9.87891C8.02344 9.76172 7.92578 9.64453 7.86719 9.48828C7.80859 9.33203 7.78906 9.17578 7.78906 9C7.78906 8.84375 7.80859 8.6875 7.86719 8.53125C7.92578 8.375 8.02344 8.23828 8.16016 8.12109C8.27734 8.00391 8.39453 7.90625 8.55078 7.84766C8.70703 7.78906 8.86328 7.75 9.03906 7.75C9.19531 7.75 9.35156 7.78906 9.50781 7.84766C9.66406 7.90625 9.80078 8.00391 9.91797 8.12109C10.0352 8.23828 10.1328 8.375 10.1914 8.53125C10.25 8.6875 10.2891 8.84375 10.2891 9C10.2891 9.17578 10.25 9.33203 10.1914 9.48828C10.1328 9.64453 10.0352 9.76172 9.91797 9.87891C9.80078 10.0156 9.66406 10.1133 9.50781 10.1719C9.35156 10.2305 9.19531 10.25 9.03906 10.25ZM8.16016 15.6602H9.82031L10.1133 13.4531C10.3086 13.4141 10.5234 13.3359 10.7188 13.2578C10.9141 13.1797 11.1094 13.082 11.3047 12.9648C11.4805 12.8672 11.6562 12.75 11.832 12.6133C11.9883 12.4961 12.1641 12.3398 12.3203 12.1836L14.3711 13.043L15.1914 11.6172L13.3945 10.2695C13.4336 10.1914 13.4531 10.0938 13.4727 9.97656C13.4922 9.87891 13.5117 9.78125 13.5508 9.66406C13.5508 9.54688 13.5703 9.44922 13.5703 9.33203C13.5703 9.23438 13.5898 9.11719 13.5898 9C13.5898 8.88281 13.5703 8.78516 13.5703 8.66797C13.5703 8.57031 13.5508 8.45312 13.5508 8.33594C13.5117 8.23828 13.4922 8.14062 13.4727 8.02344C13.4531 7.92578 13.4336 7.82812 13.3945 7.73047L15.1914 6.38281L14.3711 4.95703L12.3203 5.83594C12.1641 5.67969 11.9883 5.54297 11.832 5.40625C11.6562 5.26953 11.4805 5.15234 11.3047 5.03516C11.1094 4.9375 10.9141 4.83984 10.7188 4.76172C10.5234 4.68359 10.3086 4.60547 10.1133 4.54688L9.83984 2.33984H8.17969L7.88672 4.54688C7.67188 4.60547 7.45703 4.68359 7.26172 4.76172C7.06641 4.83984 6.87109 4.9375 6.69531 5.03516C6.5 5.15234 6.32422 5.26953 6.16797 5.38672C5.99219 5.52344 5.83594 5.66016 5.67969 5.81641L3.62891 4.95703L2.80859 6.38281L4.60547 7.71094C4.56641 7.82812 4.52734 7.92578 4.50781 8.02344C4.48828 8.14062 4.46875 8.23828 4.44922 8.33594C4.42969 8.45312 4.41016 8.55078 4.41016 8.66797C4.41016 8.78516 4.41016 8.88281 4.41016 9C4.41016 9.11719 4.41016 9.23438 4.41016 9.33203C4.41016 9.44922 4.42969 9.54688 4.44922 9.64453C4.46875 9.76172 4.48828 9.85938 4.50781 9.95703C4.52734 10.0742 4.56641 10.1719 4.60547 10.2695L2.80859 11.6172L3.62891 13.043L5.67969 12.1641C5.83594 12.3203 5.99219 12.4766 6.16797 12.6133C6.32422 12.75 6.5 12.8672 6.69531 12.9648C6.87109 13.082 7.06641 13.1797 7.26172 13.2578C7.45703 13.3359 7.67188 13.4141 7.88672 13.4531L8.16016 15.6602Z" fill="#00A751"/>
</svg>
