<svg width="122" height="48" viewBox="0 0 122 48" fill="none" xmlns="http://www.w3.org/2000/svg">
<path fill-rule="evenodd" clip-rule="evenodd" d="M29.251 9.05333C28.9372 10.0212 28.1135 10.6662 27.1907 10.6667H11.8684C11.0363 10.6666 10.2918 10.0897 10.0014 9.22L8.25399 4H4L6.26747 10.7733C7.14601 13.3758 9.37504 15.1022 11.8684 15.1111H27.1907C29.781 15.1063 32.095 13.304 32.9909 10.5933L35.1966 4H30.9526L29.251 9.05333ZM117.124 18.6421L109.199 27.3079L118 36.8462H112.72L105.985 29.5625V36.8462H102.047V12.4087H105.985V25.0533L111.844 18.6421H117.124ZM95.8859 17.8333V20.1933C94.0502 18.3578 91.5783 17.3305 89.0043 17.3333C83.5757 17.3333 79.7632 21.8093 79.7632 27.3333C79.7632 32.8573 83.5757 37.3333 89.0043 37.3333C91.5777 37.3386 94.0497 36.3134 95.8859 34.4793V36.8413H99.8182V17.8413L95.8859 17.8333ZM89.5941 33.3333C86.3364 33.3333 83.6956 30.647 83.6956 27.3333C83.6956 24.0196 86.3364 21.3333 89.5941 21.3333C92.8518 21.3333 95.4926 24.0196 95.4926 27.3333C95.4926 28.9246 94.8712 30.4507 93.765 31.5759C92.6588 32.7012 91.1585 33.3333 89.5941 33.3333ZM73.6026 20.1933V17.8333L77.5349 17.8413V36.8413H73.6026V34.4793C71.7664 36.3134 69.2944 37.3386 66.721 37.3333C61.2923 37.3333 57.4799 32.8573 57.4799 27.3333C57.4799 21.8093 61.2923 17.3333 66.721 17.3333C69.295 17.3305 71.7669 18.3578 73.6026 20.1933ZM61.4123 27.3333C61.4123 30.647 64.0531 33.3333 67.3108 33.3333C68.8752 33.3333 70.3755 32.7012 71.4817 31.5759C72.5879 30.4507 73.2093 28.9246 73.2093 27.3333C73.2093 24.0196 70.5685 21.3333 67.3108 21.3333C64.0531 21.3333 61.4123 24.0196 61.4123 27.3333ZM20.7125 17.3333C15.1745 17.3333 10.685 21.8105 10.685 27.3333C10.685 32.8562 15.1745 37.3333 20.7125 37.3333C26.2505 37.3333 30.74 32.8562 30.74 27.3333C30.74 24.6812 29.6835 22.1376 27.803 20.2623C25.9225 18.3869 23.3719 17.3333 20.7125 17.3333ZM20.7125 33.3333C17.3897 33.3333 14.696 30.647 14.696 27.3333C14.696 24.0196 17.3897 21.3333 20.7125 21.3333C24.0353 21.3333 26.729 24.0196 26.729 27.3333C26.729 28.9246 26.0951 30.4508 24.9668 31.576C23.8385 32.7012 22.3082 33.3333 20.7125 33.3333ZM47.7346 44H43.5787L46.4887 36.0367L39.6533 17.3333H43.8092L48.5666 30.3509L53.324 17.3333H57.4799L47.7346 44Z" fill="black"/>
</svg>
